<svg width="20" height="20" viewBox="0 0 20 20" fill="none" xmlns="http://www.w3.org/2000/svg">
<path fill-rule="evenodd" clip-rule="evenodd" d="M4.2575 7.81153C4.25772 6.0484 4.85433 4.33719 5.95032 2.9561C7.04631 1.57501 8.57724 0.605259 10.2942 0.204501C12.0112 -0.196257 13.8132 -0.00445284 15.4074 0.748731C17.0015 1.50191 18.2941 2.77219 19.0748 4.35303C19.8555 5.93387 20.0786 7.73232 19.7077 9.45599C19.3368 11.1797 18.3937 12.7272 17.0319 13.847C15.67 14.9668 13.9694 15.593 12.2066 15.6238C10.4437 15.6546 8.72225 15.0882 7.32208 14.0167L5.45958 15.8782L6.945 17.3636C7.04449 17.4597 7.12385 17.5746 7.17844 17.7017C7.23303 17.8288 7.26177 17.9655 7.26297 18.1038C7.26417 18.2421 7.23782 18.3793 7.18544 18.5073C7.13306 18.6353 7.05572 18.7516 6.95791 18.8494C6.86011 18.9472 6.7438 19.0246 6.61579 19.077C6.48777 19.1293 6.3506 19.1557 6.21229 19.1545C6.07398 19.1533 5.93729 19.1246 5.8102 19.07C5.68312 19.0154 5.56818 18.936 5.47208 18.8365L3.98667 17.3522L1.77834 19.5605C1.58288 19.7558 1.31783 19.8655 1.04151 19.8654C0.765186 19.8653 0.500219 19.7554 0.304899 19.56C0.109578 19.3645 -9.76071e-05 19.0995 6.51812e-08 18.8231C9.77374e-05 18.5468 0.10996 18.2818 0.305419 18.0865L2.51375 15.8782L1.05229 14.4167C0.952805 14.3206 0.873448 14.2057 0.818855 14.0786C0.764262 13.9515 0.735527 13.8148 0.734325 13.6765C0.733123 13.5382 0.759479 13.401 0.811855 13.273C0.864231 13.145 0.941578 13.0287 1.03938 12.9309C1.13719 12.8331 1.25349 12.7558 1.38151 12.7034C1.50953 12.651 1.64669 12.6246 1.785 12.6258C1.92332 12.6271 2.06 12.6558 2.18709 12.7104C2.31418 12.765 2.42912 12.8443 2.52521 12.9438L3.98667 14.4053L5.85125 12.5407C4.81498 11.1821 4.25489 9.52018 4.2575 7.81153ZM12.07 2.08236C10.5505 2.08236 9.09329 2.68597 8.01887 3.76039C6.94444 4.83482 6.34083 6.29206 6.34083 7.81153C6.34083 9.331 6.94444 10.7882 8.01887 11.8627C9.09329 12.9371 10.5505 13.5407 12.07 13.5407C13.5895 13.5407 15.0467 12.9371 16.1211 11.8627C17.1956 10.7882 17.7992 9.331 17.7992 7.81153C17.7992 6.29206 17.1956 4.83482 16.1211 3.76039C15.0467 2.68597 13.5895 2.08236 12.07 2.08236Z" fill="#99A9D4"/>
</svg>
