<svg width="27" height="23" viewBox="0 0 27 23" fill="none" xmlns="http://www.w3.org/2000/svg">
<path d="M10.9472 1.97039L5.25464 13.246L3.17468 13.6839C3.39362 13.1 3.72203 12.6256 4.15992 12.2607C4.67079 11.8229 5.29113 11.6039 6.02094 11.6039C7.26162 11.6039 8.35634 12.0783 9.3051 13.027C10.3268 13.9758 10.8377 15.18 10.8377 16.6396C10.8377 18.0992 10.2903 19.3764 9.19563 20.4711C8.10091 21.5658 6.82374 22.1132 5.36411 22.1132C3.90449 22.1132 2.62732 21.6023 1.5326 20.5806C0.510861 19.4859 -7.2413e-06 18.1722 -7.2413e-06 16.6396C-7.2413e-06 15.9828 0.109465 15.253 0.328408 14.4502C0.547352 13.5744 0.948748 12.4797 1.5326 11.166L7.33461 -0.000100192L10.9472 1.97039ZM26.7111 1.97039L21.0186 13.246L18.9386 13.6839C19.1576 13.1 19.486 12.6256 19.9239 12.2607C20.4347 11.8229 21.0551 11.6039 21.7849 11.6039C23.0256 11.6039 24.1203 12.0783 25.069 13.027C26.0908 13.9758 26.6016 15.18 26.6016 16.6396C26.6016 18.0992 26.0543 19.3764 24.9596 20.4711C23.8649 21.5658 22.5877 22.1132 21.1281 22.1132C19.6684 22.1132 18.3913 21.6023 17.2965 20.5806C16.2748 19.4859 15.7639 18.1722 15.7639 16.6396C15.7639 15.9828 15.8734 15.253 16.0924 14.4502C16.3113 13.5744 16.7127 12.4797 17.2965 11.166L23.0985 -0.000100192L26.7111 1.97039Z" fill="#740752"/>
</svg>
